<svg width="21" height="20" viewBox="0 0 21 20" fill="none" xmlns="http://www.w3.org/2000/svg">
<path d="M9.53396 1.45879C10.2518 0.847069 11.3075 0.847069 12.0254 1.45879L13.2463 2.49929C13.5539 2.76143 13.9364 2.91985 14.3393 2.952L15.9384 3.07961C16.8785 3.15463 17.625 3.90117 17.7001 4.8413L17.8277 6.4404C17.8598 6.84327 18.0182 7.22573 18.2804 7.53333L19.3209 8.75429C19.9326 9.47212 19.9326 10.5279 19.3209 11.2457L18.2804 12.4667C18.0182 12.7743 17.8598 13.1567 17.8277 13.5596L17.7001 15.1587C17.625 16.0988 16.8785 16.8454 15.9384 16.9204L14.3393 17.048C13.9364 17.0802 13.5539 17.2386 13.2463 17.5007L12.0254 18.5412C11.3075 19.1529 10.2518 19.1529 9.53396 18.5412L8.31299 17.5007C8.00539 17.2386 7.62293 17.0802 7.22006 17.048L5.62097 16.9204C4.68083 16.8454 3.93429 16.0988 3.85927 15.1587L3.73166 13.5596C3.69951 13.1567 3.54109 12.7743 3.27895 12.4667L2.23846 11.2457C1.62673 10.5279 1.62673 9.47212 2.23846 8.75429L3.27895 7.53333C3.54109 7.22573 3.69951 6.84327 3.73166 6.4404L3.85927 4.8413C3.93429 3.90117 4.68083 3.15463 5.62097 3.07961L7.22006 2.952C7.62293 2.91985 8.00539 2.76143 8.31299 2.49929L9.53396 1.45879Z" stroke="#39AEA9" stroke-width="2" stroke-linecap="round" stroke-linejoin="round"/>
<path d="M10.7299 13.4502H10.8299V13.5502H10.7299V13.4502Z" stroke="#39AEA9" stroke-width="2" stroke-linecap="round" stroke-linejoin="round"/>
<path d="M10.7797 6.4502V10.4502" stroke="#39AEA9" stroke-width="2" stroke-linecap="round" stroke-linejoin="round"/>
</svg>
