<svg width="20" height="20" viewBox="0 0 20 20" fill="none" xmlns="http://www.w3.org/2000/svg">
<path d="M13.9325 16.46L13.3992 12.19C13.3236 11.5852 13.0297 11.0288 12.5727 10.6255C12.1157 10.2222 11.527 9.99977 10.9175 10H9.08086C8.47163 10.0002 7.88343 10.2228 7.42676 10.6261C6.9701 11.0293 6.67641 11.5855 6.60086 12.19L6.0667 16.46C6.03738 16.6946 6.05831 16.9327 6.12809 17.1586C6.19788 17.3845 6.31492 17.593 6.47145 17.7701C6.62798 17.9473 6.82041 18.0892 7.03597 18.1863C7.25153 18.2834 7.48528 18.3335 7.7217 18.3333H12.2784C12.5147 18.3334 12.7484 18.2832 12.9638 18.186C13.1793 18.0889 13.3716 17.947 13.5281 17.7698C13.6845 17.5927 13.8015 17.3843 13.8712 17.1584C13.9409 16.9326 13.9618 16.6945 13.9325 16.46V16.46Z" stroke="#828282" stroke-width="1.66667" stroke-linecap="round" stroke-linejoin="round"/>
<path d="M10 6.66667C11.3807 6.66667 12.5 5.54738 12.5 4.16667C12.5 2.78596 11.3807 1.66667 10 1.66667C8.61929 1.66667 7.5 2.78596 7.5 4.16667C7.5 5.54738 8.61929 6.66667 10 6.66667Z" stroke="#828282" stroke-width="1.66667"/>
<path d="M3.33335 9.16668C4.25383 9.16668 5.00002 8.42048 5.00002 7.50001C5.00002 6.57954 4.25383 5.83334 3.33335 5.83334C2.41288 5.83334 1.66669 6.57954 1.66669 7.50001C1.66669 8.42048 2.41288 9.16668 3.33335 9.16668Z" stroke="#828282" stroke-width="1.66667"/>
<path d="M16.6667 9.16668C17.5871 9.16668 18.3333 8.42048 18.3333 7.50001C18.3333 6.57954 17.5871 5.83334 16.6667 5.83334C15.7462 5.83334 15 6.57954 15 7.50001C15 8.42048 15.7462 9.16668 16.6667 9.16668Z" stroke="#828282" stroke-width="1.66667"/>
<path d="M16.6667 11.6667H16.9217C17.3162 11.6666 17.698 11.8065 17.999 12.0615C18.3001 12.3165 18.5009 12.67 18.5658 13.0592L18.8433 14.7258C18.8832 14.9646 18.8705 15.2092 18.8062 15.4426C18.7419 15.676 18.6275 15.8926 18.4711 16.0773C18.3146 16.262 18.1197 16.4104 17.9001 16.5122C17.6804 16.614 17.4413 16.6667 17.1992 16.6667H14.1667M3.33334 11.6667H3.07834C2.68381 11.6666 2.30206 11.8065 2.00099 12.0615C1.69993 12.3165 1.49908 12.67 1.43418 13.0592L1.15668 14.7258C1.11685 14.9646 1.12953 15.2092 1.19382 15.4426C1.25811 15.676 1.37247 15.8926 1.52895 16.0773C1.68543 16.262 1.88027 16.4104 2.09992 16.5122C2.31957 16.614 2.55876 16.6667 2.80084 16.6667H5.83334L3.33334 11.6667Z" stroke="#828282" stroke-width="1.66667" stroke-linecap="round" stroke-linejoin="round"/>
</svg>
