<svg width="19" height="18" viewBox="0 0 19 18" fill="none" xmlns="http://www.w3.org/2000/svg">
<path d="M9.07256 11.2929C8.68203 11.6834 8.68203 12.3166 9.07256 12.7071C9.46308 13.0976 10.0962 13.0976 10.4868 12.7071L9.07256 11.2929ZM12.7797 9L13.4868 9.70711C13.6743 9.51957 13.7797 9.26522 13.7797 9C13.7797 8.73478 13.6743 8.48043 13.4868 8.29289L12.7797 9ZM10.4868 5.29289C10.0962 4.90237 9.46308 4.90237 9.07256 5.29289C8.68203 5.68342 8.68203 6.31658 9.07256 6.70711L10.4868 5.29289ZM1.77966 8C1.22738 8 0.779663 8.44772 0.779663 9C0.779663 9.55228 1.22738 10 1.77966 10L1.77966 8ZM10.4868 12.7071L13.4868 9.70711L12.0726 8.29289L9.07256 11.2929L10.4868 12.7071ZM13.4868 8.29289L10.4868 5.29289L9.07256 6.70711L12.0726 9.70711L13.4868 8.29289ZM1.77966 10L12.7797 10V8L1.77966 8L1.77966 10Z" fill="#828282"/>
<path d="M6.77966 4V2C6.77966 1.44772 7.22738 1 7.77966 1H16.7797C17.3319 1 17.7797 1.44772 17.7797 2V16C17.7797 16.5523 17.3319 17 16.7797 17H7.77966C7.22738 17 6.77966 16.5523 6.77966 16V14" stroke="#828282" stroke-width="2" stroke-linecap="round" stroke-linejoin="round"/>
</svg>
