<svg width="21" height="20" viewBox="0 0 21 20" fill="none" xmlns="http://www.w3.org/2000/svg">
<path d="M9.52966 14.375H14.5297V15.625H9.52966V14.375ZM7.02966 14.375H8.27966V15.625H7.02966V14.375ZM9.52966 11.25H14.5297V12.5H9.52966V11.25ZM7.02966 11.25H8.27966V12.5H7.02966V11.25ZM9.52966 8.125H14.5297V9.375H9.52966V8.125ZM7.02966 8.125H8.27966V9.375H7.02966V8.125Z" fill="#828282"/>
<path d="M16.4047 3.125H14.5297V2.5C14.5297 2.16848 14.398 1.85054 14.1635 1.61612C13.9291 1.3817 13.6112 1.25 13.2797 1.25H8.27966C7.94814 1.25 7.6302 1.3817 7.39578 1.61612C7.16136 1.85054 7.02966 2.16848 7.02966 2.5V3.125H5.15466C4.82314 3.125 4.5052 3.2567 4.27078 3.49112C4.03636 3.72554 3.90466 4.04348 3.90466 4.375V17.5C3.90466 17.8315 4.03636 18.1495 4.27078 18.3839C4.5052 18.6183 4.82314 18.75 5.15466 18.75H16.4047C16.7362 18.75 17.0541 18.6183 17.2885 18.3839C17.523 18.1495 17.6547 17.8315 17.6547 17.5V4.375C17.6547 4.04348 17.523 3.72554 17.2885 3.49112C17.0541 3.2567 16.7362 3.125 16.4047 3.125ZM8.27966 2.5H13.2797V5H8.27966V2.5ZM16.4047 17.5H5.15466V4.375H7.02966V6.25H14.5297V4.375H16.4047V17.5Z" fill="#828282"/>
</svg>
