<svg width="450" height="387" viewBox="0 0 450 387" fill="none" xmlns="http://www.w3.org/2000/svg">
<path d="M212.596 386.599H6.10594C4.48654 386.599 2.93347 386.003 1.78839 384.941C0.643303 383.88 0 382.44 0 380.939V5.60992C0.0140996 4.11754 0.66362 2.69073 1.80718 1.64006C2.95074 0.589401 4.49576 -5.72152e-05 6.10594 4.16536e-09H212.596C213.398 4.16537e-09 214.192 0.146385 214.932 0.430801C215.673 0.715216 216.346 1.13209 216.913 1.65762C217.48 2.18315 217.93 2.80705 218.237 3.49369C218.544 4.18033 218.702 4.91627 218.702 5.65948V380.939C218.702 381.683 218.544 382.419 218.237 383.105C217.93 383.792 217.48 384.416 216.913 384.941C216.346 385.467 215.673 385.884 214.932 386.168C214.192 386.453 213.398 386.599 212.596 386.599V386.599ZM6.10594 0.198231C4.55831 0.200851 3.07488 0.77185 1.98054 1.78617C0.886206 2.80049 0.270162 4.17546 0.267335 5.60992V380.939C0.270162 382.374 0.886206 383.749 1.98054 384.763C3.07488 385.778 4.55831 386.349 6.10594 386.351H212.596C214.143 386.349 215.627 385.778 216.721 384.763C217.816 383.749 218.432 382.374 218.434 380.939V5.60992C218.432 4.17546 217.816 2.80049 216.721 1.78617C215.627 0.77185 214.143 0.200851 212.596 0.198231H6.10594Z" fill="#EBEBEB"/>
<path d="M443.894 386.599H237.404C235.785 386.599 234.232 386.003 233.086 384.941C231.941 383.88 231.298 382.44 231.298 380.939V5.60992C231.312 4.11754 231.962 2.69073 233.105 1.64006C234.249 0.589401 235.794 -5.72152e-05 237.404 4.16536e-09H443.894C445.513 4.16538e-09 447.066 0.596265 448.211 1.65762C449.357 2.71898 450 4.15849 450 5.65948V380.939C450 381.683 449.842 382.419 449.535 383.105C449.228 383.792 448.778 384.416 448.211 384.941C447.644 385.467 446.971 385.884 446.231 386.168C445.49 386.453 444.696 386.599 443.894 386.599V386.599ZM237.404 0.198231C235.856 0.200851 234.373 0.77185 233.279 1.78617C232.184 2.80049 231.568 4.17546 231.565 5.60992V380.939C231.568 382.374 232.184 383.749 233.279 384.763C234.373 385.778 235.856 386.349 237.404 386.351H443.894C445.442 386.349 446.925 385.778 448.019 384.763C449.114 383.749 449.73 382.374 449.733 380.939V5.60992C449.73 4.17546 449.114 2.80049 448.019 1.78617C446.925 0.77185 445.442 0.200851 443.894 0.198231H237.404Z" fill="#EBEBEB"/>
<path d="M78.5541 112.248L80.2864 115.489L84.1574 116.014L81.3558 118.542L82.0188 122.11L78.5541 120.425L75.1001 122.11L75.7631 118.542L72.9614 116.014L76.8324 115.489L78.5541 112.248Z" fill="#EBEBEB"/>
<path d="M424.646 265.113L426.379 268.364L430.25 268.89L427.448 271.407L428.111 274.985L424.646 273.3L421.192 274.985L421.855 271.407L419.054 268.89L422.925 268.364L424.646 265.113Z" fill="#F5F5F5"/>
<path d="M356.102 359.362L357.834 362.603L361.695 363.128L358.893 365.656L359.556 369.224L356.102 367.539L352.648 369.224L353.3 365.656L350.509 363.128L354.37 362.603L356.102 359.362Z" fill="#F5F5F5"/>
<path d="M199.272 54.6621L199.914 55.8713L201.357 56.0695C201.438 56.0793 201.514 56.1101 201.576 56.1584C201.639 56.2067 201.685 56.2704 201.709 56.3422C201.734 56.4139 201.736 56.4907 201.716 56.5635C201.695 56.6364 201.652 56.7022 201.593 56.7534L200.523 57.695L200.769 59.0232C200.782 59.0971 200.772 59.1728 200.741 59.242C200.711 59.3111 200.66 59.371 200.594 59.4151C200.529 59.4592 200.452 59.4857 200.372 59.4918C200.291 59.4978 200.21 59.4831 200.138 59.4494L198.855 58.815L197.572 59.4494C197.5 59.4831 197.419 59.4978 197.339 59.4918C197.258 59.4857 197.181 59.4592 197.116 59.4151C197.051 59.371 197 59.3111 196.969 59.242C196.938 59.1728 196.928 59.0971 196.941 59.0232L197.176 57.695L196.107 56.7534C196.047 56.7016 196.005 56.6349 195.984 56.5613C195.964 56.4877 195.967 56.4103 195.993 56.3383C196.019 56.2663 196.067 56.2027 196.131 56.155C196.194 56.1074 196.271 56.0777 196.353 56.0695L197.786 55.8713L198.427 54.6621C198.453 54.5765 198.508 54.5011 198.585 54.4474C198.661 54.3937 198.754 54.3646 198.85 54.3646C198.946 54.3646 199.039 54.3937 199.115 54.4474C199.191 54.5011 199.247 54.5765 199.272 54.6621V54.6621Z" fill="#EBEBEB"/>
<path d="M22.66 343.93L23.3016 345.129L24.7345 345.327C24.8159 345.338 24.8924 345.369 24.9555 345.418C25.0185 345.467 25.0656 345.531 25.0912 345.603C25.1168 345.675 25.12 345.753 25.1005 345.827C25.0809 345.901 25.0393 345.968 24.9805 346.021L23.9111 346.953L24.1571 348.281C24.1697 348.355 24.1601 348.431 24.1292 348.5C24.0984 348.569 24.0475 348.629 23.9823 348.673C23.917 348.717 23.8399 348.744 23.7594 348.75C23.6789 348.756 23.5982 348.741 23.5261 348.707L22.2429 348.083L20.9597 348.707C20.8877 348.741 20.807 348.756 20.7265 348.75C20.646 348.744 20.5689 348.717 20.5036 348.673C20.4384 348.629 20.3875 348.569 20.3567 348.5C20.3258 348.431 20.3162 348.355 20.3288 348.281L20.5748 346.953L19.5054 346.021C19.4468 345.969 19.405 345.902 19.3849 345.829C19.3648 345.756 19.3671 345.679 19.3915 345.607C19.4159 345.535 19.4616 345.47 19.5232 345.421C19.5849 345.372 19.6602 345.339 19.7407 345.327L21.1736 345.129L21.8259 343.93C21.8545 343.848 21.9102 343.777 21.9851 343.727C22.0601 343.676 22.1503 343.649 22.2429 343.649C22.3356 343.649 22.4258 343.676 22.5007 343.727C22.5757 343.777 22.6314 343.848 22.66 343.93V343.93Z" fill="#F5F5F5"/>
<path d="M51.4993 41.9257L52.1409 43.1349L53.5845 43.3233C53.665 43.3352 53.7403 43.3676 53.802 43.417C53.8637 43.4663 53.9093 43.5307 53.9337 43.6027C53.9582 43.6748 53.9604 43.7517 53.9403 43.8249C53.9202 43.8981 53.8785 43.9646 53.8198 44.0171L52.7505 45.0082L52.9964 46.3265C53.0135 46.4013 53.0069 46.4791 52.9773 46.5505C52.9478 46.6219 52.8966 46.6839 52.8299 46.7289C52.7632 46.774 52.6839 46.8002 52.6015 46.8044C52.5191 46.8086 52.4371 46.7906 52.3655 46.7526L51.0823 46.1282L49.7991 46.7526C49.7275 46.7906 49.6455 46.8086 49.5631 46.8044C49.4807 46.8002 49.4014 46.774 49.3347 46.7289C49.268 46.6839 49.2168 46.6219 49.1873 46.5505C49.1577 46.4791 49.1511 46.4013 49.1682 46.3265L49.4034 45.0082L48.3341 44.0171C48.2752 43.964 48.2336 43.8967 48.2141 43.8227C48.1945 43.7488 48.1977 43.6713 48.2233 43.599C48.249 43.5267 48.296 43.4625 48.359 43.4137C48.4221 43.365 48.4987 43.3336 48.58 43.3233L50.0129 43.1349L50.6973 41.9257C50.7317 41.8537 50.7879 41.7925 50.8591 41.7495C50.9302 41.7065 51.0134 41.6837 51.0983 41.6837C51.1833 41.6837 51.2664 41.7065 51.3376 41.7495C51.4088 41.7925 51.465 41.8537 51.4993 41.9257Z" fill="#EBEBEB"/>
<path d="M49.7668 280.813C49.7689 281.074 49.6873 281.33 49.5323 281.548C49.3773 281.766 49.1559 281.937 48.8963 282.038C48.6366 282.14 48.3503 282.167 48.0737 282.117C47.7971 282.068 47.5427 281.943 47.3427 281.759C47.1428 281.575 47.0062 281.34 46.9505 281.084C46.8947 280.828 46.9223 280.562 47.0296 280.321C47.1369 280.08 47.3192 279.873 47.5533 279.728C47.7874 279.583 48.0628 279.505 48.3445 279.505C48.7199 279.505 49.08 279.642 49.3464 279.888C49.6129 280.133 49.7639 280.465 49.7668 280.813V280.813Z" fill="#EBEBEB"/>
<path d="M252.45 115.856C252.452 116.117 252.37 116.373 252.215 116.591C252.06 116.809 251.839 116.979 251.579 117.081C251.319 117.182 251.033 117.21 250.757 117.16C250.48 117.11 250.226 116.985 250.026 116.801C249.826 116.617 249.689 116.383 249.633 116.127C249.578 115.871 249.605 115.605 249.712 115.364C249.82 115.122 250.002 114.916 250.236 114.77C250.47 114.625 250.746 114.547 251.027 114.547C251.214 114.546 251.398 114.579 251.571 114.644C251.743 114.709 251.9 114.806 252.032 114.927C252.165 115.049 252.27 115.193 252.341 115.353C252.413 115.512 252.45 115.683 252.45 115.856V115.856Z" fill="#EBEBEB"/>
<path d="M178.708 43.016C178.708 43.2767 178.625 43.5316 178.469 43.7484C178.312 43.9651 178.09 44.1341 177.83 44.2339C177.57 44.3336 177.284 44.3598 177.009 44.3089C176.733 44.258 176.479 44.1325 176.28 43.9481C176.081 43.7638 175.946 43.5289 175.891 43.2732C175.836 43.0174 175.864 42.7524 175.972 42.5115C176.08 42.2706 176.262 42.0648 176.496 41.9199C176.73 41.7751 177.005 41.6978 177.286 41.6978C177.662 41.7003 178.022 41.8401 178.289 42.0867C178.555 42.3334 178.705 42.6672 178.708 43.016V43.016Z" fill="#F5F5F5"/>
<path d="M180.961 364.292C185.185 363.368 187.802 359.444 186.805 355.528C185.808 351.612 181.574 349.187 177.35 350.111C173.125 351.036 170.509 354.959 171.506 358.875C172.503 362.791 176.736 365.216 180.961 364.292Z" fill="#F0F0F0"/>
<path d="M176.452 352.939C174.842 352.936 173.272 353.409 171.971 354.287C171.306 355.7 171.143 357.273 171.505 358.777C171.867 360.282 172.735 361.641 173.984 362.659C175.233 363.676 176.799 364.3 178.455 364.44C180.111 364.579 181.772 364.228 183.199 363.436C183.199 363.436 183.199 363.436 183.199 363.436C183.831 362.353 184.148 361.137 184.12 359.906C184.092 358.676 183.72 357.473 183.04 356.416C182.359 355.359 181.395 354.483 180.24 353.876C179.085 353.268 177.78 352.949 176.452 352.949V352.939Z" fill="#E6E6E6"/>
<path d="M115.585 230.582H50.5159V203.355L115.585 131.655H146.725V204.901H162.861V230.582H146.725V252.863H115.585V230.582ZM115.585 204.901V167.396L81.1953 204.901H115.585Z" fill="#39AEA9"/>
<path d="M173.992 192.789C173.992 170.131 178.391 154.273 187.188 145.214C195.985 136.155 209.391 131.628 227.406 131.635C236.053 131.635 243.157 132.626 248.718 134.608C253.769 136.295 258.394 138.923 262.309 142.329C265.608 145.249 268.404 148.622 270.596 152.33C272.766 156.201 274.401 160.311 275.462 164.561C277.879 173.641 279.086 182.961 279.055 192.313C279.055 213.934 275.109 229.756 267.217 239.78C259.325 249.803 245.734 254.819 226.443 254.825C215.621 254.825 206.878 253.226 200.212 250.028C193.493 246.778 187.833 241.922 183.819 235.964C180.718 231.576 178.305 225.573 176.58 217.954C174.789 209.67 173.922 201.238 173.992 192.789V192.789ZM209.43 192.868C209.43 208.066 210.874 218.43 213.761 223.961C216.648 229.491 220.843 232.27 226.347 232.296C228.093 232.314 229.826 232.011 231.446 231.404C233.065 230.796 234.537 229.897 235.779 228.758C238.445 226.399 240.405 222.672 241.66 217.578C242.915 212.483 243.542 204.554 243.542 193.79C243.542 177.971 242.095 167.336 239.2 161.885C236.306 156.434 231.965 153.711 226.176 153.718C220.273 153.718 215.996 156.496 213.344 162.053C210.692 167.61 209.387 177.882 209.43 192.868Z" fill="#39AEA9"/>
<path d="M355.182 230.582H290.112V203.355L355.182 131.655H386.321V204.901H402.511V230.582H386.321V252.863H355.182V230.582ZM355.182 204.901V167.396L320.802 204.901H355.182Z" fill="#39AEA9"/>
<g opacity="0.3">
<path opacity="0.3" d="M172.603 89.8181C172.603 90.1851 172.485 90.5439 172.265 90.8489C172.045 91.1539 171.732 91.3914 171.366 91.5314C171 91.6714 170.597 91.7076 170.209 91.6352C169.821 91.5629 169.465 91.3854 169.185 91.1252C168.906 90.865 168.717 90.5338 168.641 90.1736C168.565 89.8134 168.606 89.4405 168.759 89.102C168.912 88.7635 169.17 88.4747 169.5 88.2722C169.83 88.0698 170.218 87.9627 170.614 87.9647C170.876 87.9647 171.135 88.0127 171.378 88.106C171.62 88.1992 171.839 88.3359 172.024 88.5081C172.209 88.6804 172.355 88.8848 172.455 89.1096C172.554 89.3344 172.604 89.5752 172.603 89.8181V89.8181Z" fill="#39AEA9"/>
<path opacity="0.3" d="M35.6945 161.013C36.4741 161.013 37.106 160.427 37.106 159.704C37.106 158.982 36.4741 158.396 35.6945 158.396C34.9149 158.396 34.283 158.982 34.283 159.704C34.283 160.427 34.9149 161.013 35.6945 161.013Z" fill="#39AEA9"/>
<path opacity="0.3" d="M268.897 352.077C270.013 352.077 270.918 351.238 270.918 350.204C270.918 349.169 270.013 348.33 268.897 348.33C267.781 348.33 266.876 349.169 266.876 350.204C266.876 351.238 267.781 352.077 268.897 352.077Z" fill="#39AEA9"/>
<path opacity="0.3" d="M317.498 275.857C318.278 275.857 318.91 275.272 318.91 274.549C318.91 273.826 318.278 273.241 317.498 273.241C316.719 273.241 316.087 273.826 316.087 274.549C316.087 275.272 316.719 275.857 317.498 275.857Z" fill="#39AEA9"/>
<path opacity="0.3" d="M411.248 40.2605C411.248 40.5192 411.165 40.7722 411.01 40.9873C410.855 41.2025 410.634 41.3702 410.376 41.4692C410.119 41.5682 409.835 41.5941 409.561 41.5436C409.287 41.4932 409.036 41.3686 408.838 41.1856C408.641 41.0026 408.506 40.7695 408.452 40.5157C408.397 40.2619 408.425 39.9989 408.532 39.7598C408.639 39.5207 408.82 39.3164 409.052 39.1726C409.284 39.0289 409.557 38.9521 409.836 38.9521C410.211 38.9521 410.57 39.09 410.834 39.3353C411.099 39.5807 411.248 39.9135 411.248 40.2605V40.2605Z" fill="#39AEA9"/>
<path opacity="0.3" d="M142.393 13.8761C142.393 14.1348 142.311 14.3878 142.155 14.6029C142 14.8181 141.78 14.9858 141.522 15.0848C141.264 15.1838 140.98 15.2097 140.706 15.1593C140.433 15.1088 140.181 14.9842 139.984 14.8012C139.786 14.6182 139.652 14.3851 139.597 14.1313C139.543 13.8775 139.571 13.6145 139.678 13.3754C139.785 13.1363 139.966 12.932 140.198 12.7882C140.43 12.6445 140.703 12.5677 140.982 12.5677C141.355 12.5703 141.713 12.709 141.977 12.9538C142.241 13.1986 142.391 13.5299 142.393 13.8761V13.8761Z" fill="#39AEA9"/>
<path opacity="0.3" d="M254.621 82.5233C255.4 82.5233 256.032 81.9375 256.032 81.2149C256.032 80.4924 255.4 79.9066 254.621 79.9066C253.841 79.9066 253.209 80.4924 253.209 81.2149C253.209 81.9375 253.841 82.5233 254.621 82.5233Z" fill="#39AEA9"/>
</g>
<path d="M108.688 82.5332C121.627 82.5332 132.117 72.8105 132.117 60.817C132.117 48.8235 121.627 39.1009 108.688 39.1009C95.7479 39.1009 85.2583 48.8235 85.2583 60.817C85.2583 72.8105 95.7479 82.5332 108.688 82.5332Z" fill="#39AEA9"/>
<path opacity="0.7" d="M108.688 82.5332C121.627 82.5332 132.117 72.8105 132.117 60.817C132.117 48.8235 121.627 39.1009 108.688 39.1009C95.7479 39.1009 85.2583 48.8235 85.2583 60.817C85.2583 72.8105 95.7479 82.5332 108.688 82.5332Z" fill="white"/>
<path opacity="0.2" d="M100.614 44.4333C97.4233 44.4242 94.2643 45.0213 91.3322 46.1876C87.7285 49.8587 85.5895 54.5628 85.2712 59.5173C84.9529 64.4718 86.4744 69.378 89.5825 73.4196C92.6907 77.4612 97.1982 80.3946 102.355 81.7317C107.512 83.0688 113.007 82.729 117.927 80.7689V80.7689C120.977 77.6533 122.985 73.784 123.709 69.6307C124.432 65.4774 123.838 61.2188 122 57.3721C120.163 53.5254 117.159 50.256 113.355 47.9609C109.551 45.6658 105.11 44.4438 100.571 44.4432L100.614 44.4333Z" fill="#39AEA9"/>
<path opacity="0.2" d="M98.283 50.1721C98.283 50.5641 98.1575 50.9474 97.9225 51.2734C97.6875 51.5994 97.3535 51.8534 96.9627 52.0035C96.5719 52.1535 96.1419 52.1928 95.7271 52.1163C95.3122 52.0398 94.9311 51.851 94.632 51.5738C94.3329 51.2965 94.1292 50.9433 94.0467 50.5588C93.9642 50.1743 94.0065 49.7757 94.1684 49.4135C94.3303 49.0512 94.6044 48.7417 94.9561 48.5238C95.3078 48.306 95.7213 48.1898 96.1443 48.1898C96.7115 48.1898 97.2555 48.3986 97.6566 48.7704C98.0577 49.1421 98.283 49.6463 98.283 50.1721Z" fill="#39AEA9"/>
<path opacity="0.2" d="M123.477 48.1897C123.477 48.5818 123.351 48.9651 123.116 49.291C122.881 49.617 122.547 49.8711 122.157 50.0211C121.766 50.1712 121.336 50.2104 120.921 50.1339C120.506 50.0575 120.125 49.8687 119.826 49.5914C119.527 49.3142 119.323 48.961 119.241 48.5765C119.158 48.1919 119.2 47.7933 119.362 47.4311C119.524 47.0689 119.798 46.7593 120.15 46.5415C120.502 46.3237 120.915 46.2074 121.338 46.2074C121.905 46.2074 122.449 46.4163 122.85 46.788C123.252 47.1598 123.477 47.664 123.477 48.1897Z" fill="#39AEA9"/>
<path opacity="0.2" d="M119.199 62.3434C119.199 62.9864 118.994 63.6149 118.608 64.1495C118.223 64.6841 117.675 65.1008 117.034 65.3469C116.393 65.593 115.688 65.6573 115.008 65.5319C114.327 65.4065 113.702 65.0968 113.212 64.6422C112.721 64.1875 112.387 63.6082 112.252 62.9776C112.116 62.347 112.186 61.6933 112.451 61.0993C112.717 60.5052 113.166 59.9975 113.743 59.6403C114.32 59.2831 114.998 59.0924 115.692 59.0924C116.622 59.0924 117.514 59.4349 118.172 60.0446C118.83 60.6543 119.199 61.4812 119.199 62.3434V62.3434Z" fill="#39AEA9"/>
<path opacity="0.2" d="M108.057 71.6107C108.057 72.4693 107.783 73.3086 107.268 74.0225C106.753 74.7365 106.022 75.2929 105.166 75.6215C104.31 75.95 103.368 76.036 102.46 75.8685C101.551 75.701 100.717 75.2875 100.062 74.6804C99.4067 74.0733 98.9607 73.2997 98.7799 72.4576C98.5992 71.6155 98.692 70.7426 99.0465 69.9494C99.401 69.1561 100.001 68.4781 100.772 68.0011C101.542 67.524 102.447 67.2694 103.374 67.2694C104.616 67.2694 105.807 67.7268 106.686 68.541C107.564 69.3551 108.057 70.4593 108.057 71.6107V71.6107Z" fill="#39AEA9"/>
<path d="M386.364 322.765C388.972 312.52 382.127 302.254 371.074 299.836C360.02 297.418 348.945 303.763 346.336 314.008C343.728 324.253 350.573 334.519 361.626 336.937C372.68 339.355 383.755 333.01 386.364 322.765Z" fill="#39AEA9"/>
<path opacity="0.3" d="M386.364 322.765C388.972 312.52 382.127 302.254 371.074 299.836C360.02 297.418 348.945 303.763 346.336 314.008C343.728 324.253 350.573 334.519 361.626 336.937C372.68 339.355 383.755 333.01 386.364 322.765Z" fill="white"/>
<path opacity="0.4" d="M379.339 303.629C374.78 302.354 369.885 302.586 365.49 304.284C361.096 305.982 357.473 309.043 355.242 312.942C353.012 316.841 352.311 321.337 353.259 325.662C354.208 329.987 356.747 333.872 360.443 336.655C362.361 337.194 364.353 337.468 366.357 337.467C370.602 337.467 374.743 336.248 378.211 333.979C381.679 331.709 384.305 328.501 385.727 324.793C387.149 321.086 387.299 317.061 386.155 313.272C385.011 309.483 382.63 306.114 379.339 303.629V303.629Z" fill="#39AEA9"/>
<path d="M346.724 324.107C324.77 333.681 341.142 341.065 372.078 330.757C400.725 321.213 411.643 309.18 385.979 312.917C387.359 317.922 351.482 330.876 346.724 324.107Z" fill="#39AEA9"/>
<path opacity="0.2" d="M379.093 131.655C350.338 149.664 313.115 173.452 302.838 230.582H300.646C310.644 174.086 346.51 149.733 375.275 131.655H379.093Z" fill="black"/>
<path d="M230.347 310.498C212.169 310.498 194.193 302.896 185.435 290.487C180.035 282.815 173.758 266.749 192.45 245.31L194.107 246.559C180.89 261.724 178.452 276.938 187.232 289.406C197.925 304.571 223.151 312.203 244.687 306.771C266.748 301.211 280.136 283.43 281.43 257.987C285.846 170.954 335.731 144.143 372.153 124.568C394.791 112.407 411.141 103.625 407.548 85.0804C407.045 82.5134 405.944 80.7392 404.158 79.6489C399.507 76.8043 390.417 78.7767 379.895 81.0465C359.246 85.5067 330.972 91.6121 314.13 65.0592L315.98 64.068C332.02 89.3721 358.294 83.6928 379.414 79.1335C390.417 76.7647 399.913 74.713 405.334 78.0135C407.634 79.4111 409.045 81.6213 409.612 84.7534C413.472 104.656 395.71 114.21 373.201 126.302C337.196 145.65 287.899 172.143 283.536 258.126C282.189 284.49 268.223 302.936 245.211 308.734C240.363 309.931 235.365 310.524 230.347 310.498Z" fill="#39AEA9"/>
<path opacity="0.2" d="M230.347 310.498C212.169 310.498 194.193 302.896 185.435 290.487C180.035 282.815 173.758 266.749 192.45 245.31L194.107 246.559C180.89 261.724 178.452 276.938 187.232 289.406C197.925 304.571 223.151 312.203 244.687 306.771C266.748 301.211 280.136 283.43 281.43 257.987C285.846 170.954 335.731 144.143 372.153 124.568C394.791 112.407 411.141 103.625 407.548 85.0804C407.045 82.5134 405.944 80.7392 404.158 79.6489C399.507 76.8043 390.417 78.7767 379.895 81.0465C359.246 85.5067 330.972 91.6121 314.13 65.0592L315.98 64.068C332.02 89.3721 358.294 83.6928 379.414 79.1335C390.417 76.7647 399.913 74.713 405.334 78.0135C407.634 79.4111 409.045 81.6213 409.612 84.7534C413.472 104.656 395.71 114.21 373.201 126.302C337.196 145.65 287.899 172.143 283.536 258.126C282.189 284.49 268.223 302.936 245.211 308.734C240.363 309.931 235.365 310.524 230.347 310.498Z" fill="white"/>
<path d="M292.113 41.6283C297.04 41.6547 301.935 42.3663 306.634 43.7395C306.634 43.7395 318.397 62.3434 319.787 66.6054C319.295 70.8078 311.649 77.6964 311.649 77.6964L292.113 41.6283Z" fill="#39AEA9"/>
<path opacity="0.3" d="M292.113 41.6283C297.04 41.6547 301.935 42.3663 306.634 43.7395C306.634 43.7395 318.397 62.3434 319.787 66.6054C319.295 70.8078 311.649 77.6964 311.649 77.6964L292.113 41.6283Z" fill="white"/>
<path d="M326.952 131.952C322.422 126.818 318.291 121.393 314.59 115.717C313.692 114.283 312.84 112.823 312.035 111.336C311.575 110.494 311.136 109.651 310.709 108.799C310.147 107.969 309.712 107.072 309.415 106.133C308.132 93.5746 312.772 84.3272 308.345 74.2472L290.723 80.6302C290.723 80.6302 292.22 98.5899 295.642 109.374C297.78 116.044 302.571 121.813 307.201 127.155C308.645 128.82 310.035 130.535 311.479 132.21C312.922 133.885 314.376 135.243 315.756 136.819C317.841 139.207 318.526 141.497 316.954 144.312L316.686 144.758C316.237 145.491 318.333 146.324 319.659 144.758C321.798 142.201 321.498 142.359 323.359 140.179C324.492 138.86 325.786 137.423 326.909 136.214C327.451 135.619 327.751 134.868 327.759 134.09C327.767 133.312 327.482 132.556 326.952 131.952V131.952Z" fill="#39AEA9"/>
<path opacity="0.7" d="M326.952 131.952C322.422 126.818 318.291 121.393 314.59 115.717C313.692 114.283 312.84 112.823 312.035 111.336C311.575 110.494 311.136 109.651 310.709 108.799C310.147 107.969 309.712 107.072 309.415 106.133C308.132 93.5746 312.772 84.3272 308.345 74.2472L290.723 80.6302C290.723 80.6302 292.22 98.5899 295.642 109.374C297.78 116.044 302.571 121.813 307.201 127.155C308.645 128.82 310.035 130.535 311.479 132.21C312.922 133.885 314.376 135.243 315.756 136.819C317.841 139.207 318.526 141.497 316.954 144.312L316.686 144.758C316.237 145.491 318.333 146.324 319.659 144.758C321.798 142.201 321.498 142.359 323.359 140.179C324.492 138.86 325.786 137.423 326.909 136.214C327.451 135.619 327.751 134.868 327.759 134.09C327.767 133.312 327.482 132.556 326.952 131.952V131.952Z" fill="white"/>
<path opacity="0.3" d="M322.642 126.788C319.846 129.567 316.742 132.065 313.382 134.242C313.841 134.717 314.291 135.233 314.75 135.689C318.115 133.582 321.17 131.08 323.84 128.245L322.642 126.788Z" fill="#39AEA9"/>
<path opacity="0.3" d="M326.952 131.952L326.824 131.813C326.001 132.688 325.523 133.796 325.466 134.955C325.397 135.751 325.537 136.55 325.872 137.284L326.888 136.164C327.419 135.576 327.716 134.836 327.727 134.069C327.739 133.302 327.465 132.554 326.952 131.952V131.952Z" fill="#39AEA9"/>
<path d="M287.921 53.5222C286.01 56.1736 283.719 58.5712 281.109 60.6486C279.662 61.8046 278.076 62.8023 276.383 63.622C275.493 64.0446 274.571 64.4057 273.624 64.7024L272.897 64.9204L272.661 64.9799L272.159 65.1087C271.849 65.1768 271.535 65.2232 271.218 65.2475C270.316 65.3115 269.408 65.2344 268.534 65.0195C267.431 64.7294 266.374 64.3062 265.39 63.7608C264.598 63.3318 263.831 62.8653 263.091 62.3632C261.754 61.4415 260.476 60.4487 259.263 59.3898C256.923 57.3356 254.777 55.1007 252.846 52.7094C252.475 52.2436 252.29 51.672 252.324 51.0935C252.359 50.5149 252.61 49.9656 253.034 49.5403C253.459 49.115 254.03 48.8405 254.65 48.764C255.27 48.6875 255.899 48.814 256.429 49.1215H256.514C259.038 50.6082 261.583 52.1742 264.064 53.5717C265.326 54.2556 266.545 54.9494 267.753 55.4847C268.305 55.7523 268.872 55.9906 269.453 56.1983C269.815 56.3464 270.203 56.4336 270.598 56.456C270.662 56.456 270.598 56.3866 270.202 56.3965C270.077 56.3896 269.952 56.3896 269.828 56.3965L269.592 56.4461L269.945 56.2776C270.42 56.0406 270.881 55.7792 271.325 55.4946C272.281 54.8693 273.176 54.1661 273.998 53.3933C275.866 51.5787 277.616 49.6624 279.238 47.6546C280.126 46.7331 281.355 46.1526 282.681 46.027C284.008 45.9015 285.337 46.2399 286.408 46.9759C287.479 47.7119 288.215 48.7923 288.471 50.0053C288.727 51.2182 288.485 52.4761 287.793 53.5321L287.921 53.5222Z" fill="#39AEA9"/>
<path opacity="0.7" d="M287.921 53.5222C286.01 56.1736 283.719 58.5712 281.109 60.6486C279.662 61.8046 278.076 62.8023 276.383 63.622C275.493 64.0446 274.571 64.4057 273.624 64.7024L272.897 64.9204L272.661 64.9799L272.159 65.1087C271.849 65.1768 271.535 65.2232 271.218 65.2475C270.316 65.3115 269.408 65.2344 268.534 65.0195C267.431 64.7294 266.374 64.3062 265.39 63.7608C264.598 63.3318 263.831 62.8653 263.091 62.3632C261.754 61.4415 260.476 60.4487 259.263 59.3898C256.923 57.3356 254.777 55.1007 252.846 52.7094C252.475 52.2436 252.29 51.672 252.324 51.0935C252.359 50.5149 252.61 49.9656 253.034 49.5403C253.459 49.115 254.03 48.8405 254.65 48.764C255.27 48.6875 255.899 48.814 256.429 49.1215H256.514C259.038 50.6082 261.583 52.1742 264.064 53.5717C265.326 54.2556 266.545 54.9494 267.753 55.4847C268.305 55.7523 268.872 55.9906 269.453 56.1983C269.815 56.3464 270.203 56.4336 270.598 56.456C270.662 56.456 270.598 56.3866 270.202 56.3965C270.077 56.3896 269.952 56.3896 269.828 56.3965L269.592 56.4461L269.945 56.2776C270.42 56.0406 270.881 55.7792 271.325 55.4946C272.281 54.8693 273.176 54.1661 273.998 53.3933C275.866 51.5787 277.616 49.6624 279.238 47.6546C280.126 46.7331 281.355 46.1526 282.681 46.027C284.008 45.9015 285.337 46.2399 286.408 46.9759C287.479 47.7119 288.215 48.7923 288.471 50.0053C288.727 51.2182 288.485 52.4761 287.793 53.5321L287.921 53.5222Z" fill="white"/>
<path d="M248.836 47.0004L250.087 48.9827C250.087 48.9827 251.039 51.5795 252.953 52.0553L258.15 50.4991L257.883 50.0928C257.22 49.1611 257.295 47.3473 257.519 45.8407C257.744 44.3342 256.91 44.2846 256.289 44.6613C255.85 45.1299 255.541 45.6915 255.391 46.2967C255.136 45.9694 254.854 45.6611 254.546 45.3749L252.964 43.908C252.632 43.6072 252.189 43.4339 251.725 43.4229C251.261 43.4118 250.81 43.5639 250.461 43.8485L249.178 44.909C248.874 45.17 248.674 45.5192 248.612 45.8992C248.55 46.2792 248.629 46.6675 248.836 47.0004V47.0004Z" fill="#39AEA9"/>
<path opacity="0.7" d="M248.836 47.0004L250.087 48.9827C250.087 48.9827 251.039 51.5795 252.953 52.0553L258.15 50.4991L257.883 50.0928C257.22 49.1611 257.295 47.3473 257.519 45.8407C257.744 44.3342 256.91 44.2846 256.289 44.6613C255.85 45.1299 255.541 45.6915 255.391 46.2967C255.136 45.9694 254.854 45.6611 254.546 45.3749L252.964 43.908C252.632 43.6072 252.189 43.4339 251.725 43.4229C251.261 43.4118 250.81 43.5639 250.461 43.8485L249.178 44.909C248.874 45.17 248.674 45.5192 248.612 45.8992C248.55 46.2792 248.629 46.6675 248.836 47.0004V47.0004Z" fill="white"/>
<path d="M297.364 39.8641C291.599 41.2803 286.078 43.4389 280.96 46.2769C280.162 46.74 279.535 47.4183 279.164 48.2208C278.794 49.0233 278.696 49.9116 278.885 50.7668C280.949 60.1233 285.644 72.6514 290.712 80.6302L314.356 71.5612C314.516 67.6957 308.774 55.1873 302.924 43.0953C301.876 40.9247 299.855 39.3091 297.364 39.8641Z" fill="#39AEA9"/>
<path opacity="0.8" d="M297.364 39.8641C291.599 41.2803 286.078 43.4389 280.96 46.2769C280.162 46.74 279.535 47.4183 279.164 48.2208C278.794 49.0233 278.696 49.9116 278.885 50.7668C280.949 60.1233 285.644 72.6514 290.712 80.6302L314.356 71.5612C314.516 67.6957 308.774 55.1873 302.924 43.0953C301.876 40.9247 299.855 39.3091 297.364 39.8641Z" fill="white"/>
<path opacity="0.3" d="M306.592 50.7568L301.898 49.2998C302.967 51.8471 306.742 55.0683 309.383 56.9614C308.528 54.9791 307.576 52.8977 306.592 50.7568Z" fill="#39AEA9"/>
<path d="M295.813 30.0516C293.856 26.6024 289.632 24.8679 284.564 25.2545C280.286 25.5915 276.501 29.6354 276.95 31.8159C277.399 33.9964 280.992 34.9281 281.676 35.6814L278.714 37.6637C278.363 37.8984 278.067 38.1966 277.844 38.5401C277.621 38.8837 277.475 39.2656 277.415 39.6628C277.355 40.0601 277.382 40.4644 277.495 40.8516C277.608 41.2388 277.805 41.6008 278.073 41.9157C279.324 43.3826 280.971 44.8892 281.922 45.9993C290.114 45.8011 296.177 42.9069 298.369 40.1218C297.545 36.5933 297.717 33.481 295.813 30.0516Z" fill="#39AEA9"/>
<path opacity="0.8" d="M295.813 30.0516C293.856 26.6024 289.632 24.8679 284.564 25.2545C280.286 25.5915 276.501 29.6354 276.95 31.8159C277.399 33.9964 280.992 34.9281 281.676 35.6814L278.714 37.6637C278.363 37.8984 278.067 38.1966 277.844 38.5401C277.621 38.8837 277.475 39.2656 277.415 39.6628C277.355 40.0601 277.382 40.4644 277.495 40.8516C277.608 41.2388 277.805 41.6008 278.073 41.9157C279.324 43.3826 280.971 44.8892 281.922 45.9993C290.114 45.8011 296.177 42.9069 298.369 40.1218C297.545 36.5933 297.717 33.481 295.813 30.0516Z" fill="white"/>
<path d="M291.793 32.1926C292.374 33.5748 292.501 35.0859 292.156 36.5347C291.811 37.9835 291.01 39.305 289.855 40.3322C288.7 41.3593 287.243 42.0461 285.667 42.3056C284.091 42.5651 282.467 42.3857 281.001 41.7901C279.535 41.1945 278.293 40.2094 277.43 38.9593C276.568 37.7093 276.125 36.2504 276.158 34.7671C276.19 33.2837 276.696 31.8426 277.612 30.6257C278.527 29.4089 279.812 28.471 281.303 27.9306C283.304 27.2081 285.532 27.2511 287.499 28.0501C289.466 28.8492 291.01 30.3391 291.793 32.1926V32.1926Z" fill="#263238"/>
<path d="M361.224 121.515C361.106 118.254 360.946 118.542 360.85 115.796C360.785 114.111 360.775 112.238 360.764 110.622C360.76 109.855 360.471 109.113 359.945 108.52C359.419 107.928 358.688 107.522 357.877 107.371C356.465 107.104 355.043 106.856 353.599 106.579C351.75 106.212 349.921 105.815 348.114 105.33C346.702 104.953 345.312 104.537 343.933 104.071C342.553 103.605 341.003 103.08 339.57 102.465C337.88 101.801 336.212 101.088 334.565 100.344C332.715 99.5314 330.887 98.6791 329.058 97.8168C322.022 87.0231 321.872 79.9066 314.323 71.5611L298.111 78.3604C298.111 78.3604 310.024 97.9456 318.129 106.251C322.802 111.029 330.127 113.19 336.661 114.756C341.377 115.876 346.157 116.738 350.937 117.56C352.797 117.878 354.819 117.997 356.423 119.027C357.609 119.871 358.423 121.087 358.711 122.447C358.782 122.724 358.846 123.002 358.903 123.279C359.107 124.112 361.299 123.478 361.224 121.515Z" fill="#39AEA9"/>
<path opacity="0.8" d="M361.224 121.515C361.106 118.254 360.946 118.542 360.85 115.796C360.785 114.111 360.775 112.238 360.764 110.622C360.76 109.855 360.471 109.113 359.945 108.52C359.419 107.928 358.688 107.522 357.877 107.371C356.465 107.104 355.043 106.856 353.599 106.579C351.75 106.212 349.921 105.815 348.114 105.33C346.702 104.953 345.312 104.537 343.933 104.071C342.553 103.605 341.003 103.08 339.57 102.465C337.88 101.801 336.212 101.088 334.565 100.344C332.715 99.5314 330.887 98.6791 329.058 97.8168C322.022 87.0231 321.872 79.9066 314.323 71.5611L298.111 78.3604C298.111 78.3604 310.024 97.9456 318.129 106.251C322.802 111.029 330.127 113.19 336.661 114.756C341.377 115.876 346.157 116.738 350.937 117.56C352.797 117.878 354.819 117.997 356.423 119.027C357.609 119.871 358.423 121.087 358.711 122.447C358.782 122.724 358.846 123.002 358.903 123.279C359.107 124.112 361.299 123.478 361.224 121.515Z" fill="white"/>
<path opacity="0.3" d="M353.001 106.45C352.36 106.321 351.718 106.192 351.066 106.043C351.119 109.473 349.387 115.38 348.756 117.174L350.788 117.531C352.119 113.96 352.865 110.225 353.001 106.45V106.45Z" fill="#39AEA9"/>
<path opacity="0.3" d="M360.807 110.622C360.804 109.857 360.516 109.115 359.992 108.523C359.468 107.931 358.74 107.524 357.931 107.371L356.861 107.183C357.033 108.31 357.655 109.336 358.604 110.057C359.215 110.581 359.946 110.967 360.743 111.187C360.807 111.009 360.807 110.811 360.807 110.622Z" fill="#39AEA9"/>
<path d="M290.284 32.252C290.712 33.7585 288.894 35.3345 287.451 34.0361C286.103 32.6971 284.629 31.473 283.045 30.3787C281.559 29.5164 283.537 28.0099 285.879 28.5946C286.878 28.8273 287.801 29.2819 288.569 29.919C289.336 30.5562 289.925 31.3569 290.284 32.252V32.252Z" fill="white"/>
<path d="M290.402 80.1445C289.653 80.4022 291.022 81.5916 291.022 81.5916C291.022 81.5916 305.993 76.8439 315.082 71.9576C315.104 71.6617 315.05 71.3653 314.923 71.093C314.797 70.8206 314.602 70.5801 314.355 70.3915C306.576 74.0594 298.579 77.3156 290.402 80.1445V80.1445Z" fill="#39AEA9"/>
<path opacity="0.5" d="M290.402 80.1445C289.653 80.4022 291.022 81.5916 291.022 81.5916C291.022 81.5916 305.993 76.8439 315.082 71.9576C315.104 71.6617 315.05 71.3653 314.923 71.093C314.797 70.8206 314.602 70.5801 314.355 70.3915C306.576 74.0594 298.579 77.3156 290.402 80.1445V80.1445Z" fill="white"/>
<path d="M301.416 39.2099C304.367 40.5975 307.137 42.0545 309.971 43.6701C311.35 44.4828 312.719 45.3055 314.077 46.1975C315.435 47.0896 316.782 48.0014 318.14 49.0322L318.643 49.4188L319.274 49.954C319.65 50.2658 320.007 50.5967 320.343 50.9452C320.686 51.2921 320.974 51.6291 321.252 51.9363C321.53 52.2436 321.83 52.6103 322.076 52.9275C323.072 54.2017 323.993 55.5252 324.835 56.8921C326.492 59.5428 327.922 62.31 329.112 65.1682C329.332 65.7082 329.343 66.3022 329.144 66.8491C328.945 67.396 328.548 67.8621 328.02 68.1682C327.492 68.4742 326.865 68.6013 326.248 68.5278C325.63 68.4543 325.059 68.1848 324.631 67.765L324.578 67.7055C322.439 65.5944 320.375 63.3742 318.301 61.3027C316.226 59.2312 314.12 57.13 312.377 56.2082C309.949 54.8107 307.244 53.4131 304.56 52.0453L296.476 47.8825C295.222 47.2674 294.284 46.2159 293.866 44.9594C293.449 43.7028 293.588 42.3442 294.251 41.1823C294.915 40.0204 296.049 39.1505 297.405 38.7639C298.761 38.3772 300.227 38.5056 301.48 39.1207L301.416 39.2099Z" fill="#39AEA9"/>
<path opacity="0.8" d="M301.416 39.2099C304.367 40.5975 307.137 42.0545 309.971 43.6701C311.35 44.4828 312.719 45.3055 314.077 46.1975C315.435 47.0896 316.782 48.0014 318.14 49.0322L318.643 49.4188L319.274 49.954C319.65 50.2658 320.007 50.5967 320.343 50.9452C320.686 51.2921 320.974 51.6291 321.252 51.9363C321.53 52.2436 321.83 52.6103 322.076 52.9275C323.072 54.2017 323.993 55.5252 324.835 56.8921C326.492 59.5428 327.922 62.31 329.112 65.1682C329.332 65.7082 329.343 66.3022 329.144 66.8491C328.945 67.396 328.548 67.8621 328.02 68.1682C327.492 68.4742 326.865 68.6013 326.248 68.5278C325.63 68.4543 325.059 68.1848 324.631 67.765L324.578 67.7055C322.439 65.5944 320.375 63.3742 318.301 61.3027C316.226 59.2312 314.12 57.13 312.377 56.2082C309.949 54.8107 307.244 53.4131 304.56 52.0453L296.476 47.8825C295.222 47.2674 294.284 46.2159 293.866 44.9594C293.449 43.7028 293.588 42.3442 294.251 41.1823C294.915 40.0204 296.049 39.1505 297.405 38.7639C298.761 38.3772 300.227 38.5056 301.48 39.1207L301.416 39.2099Z" fill="white"/>
<path d="M331.647 70.114L330.738 68.0029C330.738 68.0029 330.235 65.307 328.428 64.5537L323.081 65.3367L323.263 65.7728C323.755 66.764 323.381 68.5778 322.9 70.0248C322.418 71.4719 323.231 71.6602 323.915 71.3728C324.3 71.2142 324.675 70.57 325.081 69.8861C325.28 70.2306 325.505 70.5618 325.755 70.8772L327.07 72.5523C327.345 72.8994 327.751 73.1373 328.207 73.2182C328.664 73.2991 329.136 73.217 329.529 72.9884L330.984 72.1261C331.324 71.9102 331.575 71.5934 331.696 71.2278C331.816 70.8621 331.799 70.4694 331.647 70.114V70.114Z" fill="#39AEA9"/>
<path opacity="0.8" d="M331.647 70.114L330.738 68.0029C330.738 68.0029 330.235 65.307 328.428 64.5537L323.081 65.3367L323.263 65.7728C323.755 66.764 323.381 68.5778 322.9 70.0248C322.418 71.4719 323.231 71.6602 323.915 71.3728C324.3 71.2142 324.675 70.57 325.081 69.8861C325.28 70.2306 325.505 70.5618 325.755 70.8772L327.07 72.5523C327.345 72.8994 327.751 73.1373 328.207 73.2182C328.664 73.2991 329.136 73.217 329.529 72.9884L330.984 72.1261C331.324 71.9102 331.575 71.5934 331.696 71.2278C331.816 70.8621 331.799 70.4694 331.647 70.114V70.114Z" fill="white"/>
<path opacity="0.3" d="M296.903 50.6082L295.598 50.7073L287.589 68.6273C288.027 68.6565 288.467 68.6231 288.894 68.5282C288.894 68.5282 299.33 64.9204 302.485 63.5724C300.368 59.5186 296.903 50.6082 296.903 50.6082Z" fill="#39AEA9"/>
<path d="M282.286 55.3062C283.259 59.9906 285.066 64.4923 287.633 68.6273C291.547 67.3784 298.07 65.0195 301.235 63.6715C299.107 59.4442 297.219 55.1169 295.578 50.7072C292.231 50.9154 284.885 53.5221 282.286 55.3062Z" fill="white"/>
<path opacity="0.3" d="M290.231 59.1816C290.075 59.6663 289.767 60.0971 289.346 60.4196C288.925 60.742 288.411 60.9416 287.868 60.9931C287.325 61.0445 286.778 60.9456 286.296 60.7087C285.813 60.4718 285.418 60.1077 285.159 59.6624C284.9 59.217 284.789 58.7105 284.841 58.2069C284.893 57.7033 285.104 57.2252 285.449 56.8331C285.794 56.4411 286.257 56.1526 286.779 56.0043C287.301 55.856 287.858 55.8545 288.381 56C289.081 56.1949 289.669 56.6394 290.016 57.236C290.363 57.8325 290.44 58.5323 290.231 59.1816V59.1816Z" fill="#39AEA9"/>
<path opacity="0.6" d="M292.273 55.772C292.232 55.9375 292.137 56.0874 292.002 56.2021C291.867 56.3168 291.697 56.3909 291.516 56.4147C291.334 56.4385 291.149 56.4108 290.985 56.3354C290.821 56.26 290.685 56.1404 290.595 55.9921C290.506 55.8439 290.466 55.674 290.483 55.5048C290.499 55.3356 290.571 55.175 290.687 55.044C290.804 54.913 290.961 54.8178 291.137 54.7708C291.313 54.7239 291.501 54.7274 291.675 54.7809C291.891 54.8451 292.073 54.9831 292.185 55.1671C292.296 55.3511 292.327 55.5673 292.273 55.772Z" fill="#39AEA9"/>
<path opacity="0.6" d="M294.669 54.9098C294.644 55.0247 294.593 55.1336 294.52 55.2293C294.447 55.3251 294.353 55.4056 294.244 55.4658C294.136 55.526 294.015 55.5645 293.889 55.5788C293.764 55.5932 293.636 55.583 293.515 55.5491C293.394 55.5151 293.282 55.4581 293.186 55.3816C293.09 55.3052 293.012 55.211 292.958 55.1051C292.903 54.9991 292.873 54.8839 292.87 54.7666C292.866 54.6494 292.889 54.5327 292.937 54.4241C292.971 54.3192 293.027 54.2216 293.102 54.1369C293.177 54.0522 293.269 53.9821 293.374 53.9305C293.478 53.8789 293.592 53.847 293.71 53.8364C293.828 53.8259 293.946 53.837 294.059 53.869C294.288 53.9333 294.481 54.0786 294.595 54.2734C294.709 54.4682 294.736 54.6968 294.669 54.9098V54.9098Z" fill="#39AEA9"/>
<path opacity="0.5" d="M298.026 62.6309L288.135 66.2486L287.547 64.4447L297.428 60.827L298.026 62.6309Z" fill="#39AEA9"/>
<path opacity="0.2" d="M243.457 200.381C243.434 206.153 242.833 211.909 241.661 217.578C240.399 222.672 238.438 226.399 235.779 228.758C234.541 229.898 233.07 230.797 231.452 231.405C229.835 232.012 228.103 232.315 226.358 232.296C220.862 232.296 216.667 229.518 213.772 223.961C213.264 222.963 212.831 221.933 212.478 220.878C206.366 225.744 200.674 231.047 195.454 236.737L189.776 242.941C192.832 245.812 196.358 248.217 200.224 250.068C206.882 253.259 215.622 254.858 226.444 254.865C228.347 254.865 230.187 254.815 231.972 254.716C238.519 245.737 243.937 236.093 248.119 225.973L263.999 187.595L243.457 200.381Z" fill="black"/>
<path d="M100.304 252.744L119.017 270.089L171.415 224.327C153.354 217.935 118.237 236.083 100.304 252.744Z" fill="#263238"/>
<path d="M165.566 313.204C159.588 307.654 146.852 295.859 146.852 295.859L196.224 247.292C203.078 263.993 183.499 296.573 165.566 313.204Z" fill="#263238"/>
<path d="M237.191 203.88L257.604 167.396L218.242 186.337C205.598 192.414 193.924 200.086 183.552 209.133L116.451 267.68L149.419 298.238L212.585 236.043C222.35 226.427 230.631 215.603 237.191 203.88V203.88Z" fill="#39AEA9"/>
<path opacity="0.6" d="M237.191 203.88L257.604 167.396L218.242 186.337C205.598 192.414 193.924 200.086 183.552 209.133L116.451 267.68L149.419 298.238L212.585 236.043C222.35 226.427 230.631 215.603 237.191 203.88V203.88Z" fill="white"/>
<path d="M195.272 237.956C202.891 237.956 209.067 232.231 209.067 225.17C209.067 218.109 202.891 212.384 195.272 212.384C187.654 212.384 181.478 218.109 181.478 225.17C181.478 232.231 187.654 237.956 195.272 237.956Z" fill="white"/>
<path d="M195.272 233.387C200.168 233.387 204.137 229.708 204.137 225.17C204.137 220.632 200.168 216.953 195.272 216.953C190.376 216.953 186.407 220.632 186.407 225.17C186.407 229.708 190.376 233.387 195.272 233.387Z" fill="#39AEA9"/>
<path opacity="0.3" d="M160.572 287.256L128.289 257.333L154.723 234.279L185.445 262.764L160.572 287.256Z" fill="#39AEA9"/>
<path d="M107.608 280.119C83.4409 281.933 75.4316 296.275 72.694 315.335C71.3039 325.058 70.6837 334.9 61.883 340.59C61.3536 340.923 60.9549 341.407 60.7468 341.968C60.5387 342.529 60.5323 343.137 60.7286 343.702C60.9249 344.267 61.3133 344.758 61.8356 345.101C62.3579 345.444 62.9861 345.621 63.626 345.605C96.0698 344.663 111.201 329.945 113.104 323.8C112.605 327.012 111.712 330.161 110.442 333.186C110.208 333.719 110.163 334.308 110.311 334.867C110.46 335.426 110.795 335.928 111.269 336.3C111.743 336.673 112.332 336.897 112.951 336.941C113.571 336.985 114.189 336.847 114.719 336.546C123.819 331.263 135.24 321.53 135.999 305.741C129.305 296.949 107.608 280.119 107.608 280.119Z" fill="#39AEA9"/>
<path opacity="0.2" d="M107.608 280.119C83.4409 281.933 75.4316 296.275 72.694 315.335C71.3039 325.058 70.6837 334.9 61.883 340.59C61.3536 340.923 60.9549 341.407 60.7468 341.968C60.5387 342.529 60.5323 343.137 60.7286 343.702C60.9249 344.267 61.3133 344.758 61.8356 345.101C62.3579 345.444 62.9861 345.621 63.626 345.605C96.0698 344.663 111.201 329.945 113.104 323.8C112.605 327.012 111.712 330.161 110.442 333.186C110.208 333.719 110.163 334.308 110.311 334.867C110.46 335.426 110.795 335.928 111.269 336.3C111.743 336.673 112.332 336.897 112.951 336.941C113.571 336.985 114.189 336.847 114.719 336.546C123.819 331.263 135.24 321.53 135.999 305.741C129.305 296.949 107.608 280.119 107.608 280.119Z" fill="white"/>
<path d="M139.752 312.51L101.042 276.631L121.659 272.497L144.211 293.401L139.752 312.51Z" fill="#39AEA9"/>
</svg>
