<svg width="21" height="20" viewBox="0 0 21 20" fill="none" xmlns="http://www.w3.org/2000/svg">
<path d="M12.4463 2.724C12.4463 2.13984 11.973 1.6665 11.3888 1.6665H10.1714C9.58635 1.6665 9.11302 2.13984 9.11302 2.724C9.11302 3.20567 8.78302 3.619 8.33385 3.79567C8.26302 3.824 8.19218 3.854 8.12302 3.884C7.68052 4.07567 7.15468 4.01734 6.81302 3.6765C6.61472 3.47835 6.34585 3.36703 6.06552 3.36703C5.78518 3.36703 5.51631 3.47835 5.31802 3.6765L4.45635 4.53817C4.25819 4.73647 4.14688 5.00533 4.14688 5.28567C4.14688 5.56601 4.25819 5.83487 4.45635 6.03317C4.79802 6.37484 4.85635 6.89984 4.66302 7.34317C4.63264 7.41294 4.60347 7.48323 4.57552 7.554C4.39885 8.00317 3.98552 8.33317 3.50385 8.33317C2.91968 8.33317 2.44635 8.8065 2.44635 9.39067V10.609C2.44635 11.1932 2.91968 11.6665 3.50385 11.6665C3.98552 11.6665 4.39885 11.9965 4.57552 12.4457C4.60385 12.5165 4.63385 12.5873 4.66302 12.6565C4.85552 13.099 4.79718 13.6248 4.45635 13.9665C4.25819 14.1648 4.14688 14.4337 4.14688 14.714C4.14688 14.9943 4.25819 15.2632 4.45635 15.4615L5.31802 16.3232C5.51631 16.5213 5.78518 16.6326 6.06552 16.6326C6.34585 16.6326 6.61472 16.5213 6.81302 16.3232C7.15468 15.9815 7.67968 15.9232 8.12302 16.1157C8.19218 16.1465 8.26302 16.1757 8.33385 16.204C8.78302 16.3807 9.11302 16.794 9.11302 17.2757C9.11302 17.8598 9.58635 18.3332 10.1705 18.3332H11.3888C11.973 18.3332 12.4463 17.8598 12.4463 17.2757C12.4463 16.794 12.7764 16.3807 13.2255 16.2032C13.2964 16.1757 13.3672 16.1465 13.4363 16.1165C13.8788 15.9232 14.4047 15.9823 14.7455 16.3232C14.8437 16.4214 14.9603 16.4993 15.0886 16.5525C15.217 16.6057 15.3545 16.6331 15.4934 16.6331C15.6323 16.6331 15.7699 16.6057 15.8982 16.5525C16.0265 16.4993 16.1431 16.4214 16.2414 16.3232L17.103 15.4615C17.3012 15.2632 17.4125 14.9943 17.4125 14.714C17.4125 14.4337 17.3012 14.1648 17.103 13.9665C16.7613 13.6248 16.703 13.0998 16.8955 12.6565C16.9264 12.5873 16.9555 12.5165 16.9838 12.4457C17.1605 11.9965 17.5739 11.6665 18.0555 11.6665C18.6397 11.6665 19.113 11.1932 19.113 10.609V9.3915C19.113 8.80734 18.6397 8.334 18.0555 8.334C17.5739 8.334 17.1605 8.004 16.983 7.55484C16.9551 7.48405 16.9259 7.41376 16.8955 7.344C16.7039 6.9015 16.7622 6.37567 17.103 6.034C17.3012 5.83571 17.4125 5.56684 17.4125 5.2865C17.4125 5.00617 17.3012 4.7373 17.103 4.539L16.2414 3.67734C16.0431 3.47918 15.7742 3.36787 15.4938 3.36787C15.2135 3.36787 14.9446 3.47918 14.7463 3.67734C14.4047 4.019 13.8797 4.07734 13.4363 3.88484C13.3666 3.85418 13.2963 3.82473 13.2255 3.7965C12.7764 3.619 12.4463 3.20567 12.4463 2.72484V2.724Z" stroke="#39AEA9" stroke-width="1.66667"/>
<path d="M14.113 9.99984C14.113 10.8839 13.7618 11.7317 13.1367 12.3569C12.5116 12.982 11.6637 13.3332 10.7797 13.3332C9.89563 13.3332 9.04778 12.982 8.42266 12.3569C7.79754 11.7317 7.44635 10.8839 7.44635 9.99984C7.44635 9.11578 7.79754 8.26794 8.42266 7.64281C9.04778 7.01769 9.89563 6.6665 10.7797 6.6665C11.6637 6.6665 12.5116 7.01769 13.1367 7.64281C13.7618 8.26794 14.113 9.11578 14.113 9.99984V9.99984Z" stroke="#39AEA9" stroke-width="1.66667"/>
</svg>
